<?xml version="1.0" encoding="UTF-8"?>
<svg width="109px" height="63px" viewBox="0 0 109 63" version="1.1" xmlns="http://www.w3.org/2000/svg" xmlns:xlink="http://www.w3.org/1999/xlink">
    <title>Group</title>
    <g id="Page-1" stroke="none" stroke-width="1" fill="none" fill-rule="evenodd">
        <g id="IoTer-Logo-(Final)" transform="translate(-420.900000, -207.900000)" fill-rule="nonzero">
            <g id="Group" transform="translate(420.900000, 208.600000)">
                <g transform="translate(0.000000, 0.000000)">
                    <g transform="translate(15.860000, 0.000000)">
                        <path d="M29.21,21.01 C30.19,22.7 30.76,24.65 30.76,26.74 C30.76,33.05 25.64,38.17 19.33,38.17 C13.02,38.17 7.9,33.05 7.9,26.74 C7.9,24.65 8.47,22.7 9.45,21.01 L5.05,16.61 C3.02,19.47 1.82,22.96 1.82,26.74 C1.82,36.41 9.66,44.25 19.33,44.25 C29,44.25 36.84,36.41 36.84,26.74 C36.84,22.97 35.64,19.47 33.61,16.61 L29.21,21.01 L29.21,21.01 Z" id="Path" fill="#FFFFFF"></path>
                        <circle id="Oval" fill="#1DA24A" cx="19.33" cy="26.74" r="4.7"></circle>
                        <path d="M19.33,9.23 C14.21,9.23 9.6,11.43 6.4,14.93 L9.74,18.27 C12.09,15.62 15.51,13.93 19.33,13.93 C23.15,13.93 26.57,15.61 28.92,18.27 L32.26,14.93 C29.06,11.43 24.45,9.23 19.33,9.23 Z" id="Path" fill="#6EBE45"></path>
                        <path d="M19.29,0 C11.65,0 4.78,3.28 0,8.51 L3.67,12.28 C7.49,7.96 13.06,5.22 19.28,5.22 C25.5,5.22 31.07,7.96 34.89,12.28 L38.57,8.51 C33.79,3.28 26.92,0 19.28,0 L19.29,0 Z" id="Path" fill="#8EC73F"></path>
                    </g>
                    <polygon id="Path" fill="#FFFFFF" points="9.75 61.24 0 61.24 0 16.2 9.75 16.2"></polygon>
                    <polygon id="Path" fill="#FFFFFF" points="56.44 16.2 80.81 16.2 80.81 24.48 73.5 24.48 73.5 61.24 63.75 61.24 63.75 24.48 56.44 24.48"></polygon>
                    <path d="M23.99,61.41 C25.06,56.21 29.67,52.3 35.19,52.3 C40.71,52.3 45.31,56.21 46.39,61.41 L52.55,61.41 C51.42,52.84 44.08,46.22 35.2,46.22 C26.32,46.22 18.98,52.84 17.85,61.41 L24.01,61.41 L23.99,61.41 Z" id="Path" fill="#FFFFFF"></path>
                </g>
                <g transform="translate(80.390000, 43.650000)" fill="#FFFFFF">
                    <polygon id="Path" points="-2.22685175e-31 0.01 10.89 0.01 10.89 3.3 3.93 3.3 3.93 6.79 9.85 6.79 9.85 10.08 3.93 10.08 3.93 14.08 11.15 14.08 11.15 17.37 -2.84217094e-14 17.37 -2.84217094e-14 0"></polygon>
                    <path d="M14.61,0.01 L20.87,0.01 C24.56,0.01 27.58,1.29 27.58,5.42 C27.58,9.55 24.56,11.13 20.87,11.13 L18.54,11.13 L18.54,17.38 L14.61,17.38 L14.61,0.01 L14.61,0.01 Z M20.55,8.01 C22.62,8.01 23.73,7.13 23.73,5.42 C23.73,3.71 22.62,3.13 20.55,3.13 L18.54,3.13 L18.54,8.01 L20.55,8.01 L20.55,8.01 Z M20.15,10.1 L22.87,7.59 L28.41,17.39 L24.01,17.39 L20.14,10.1 L20.15,10.1 Z" id="Shape"></path>
                </g>
            </g>
        </g>
    </g>
</svg>